<?xml version="1.0" standalone="no"?>
<!DOCTYPE svg PUBLIC "-//W3C//DTD SVG 20010904//EN"
 "http://www.w3.org/TR/2001/REC-SVG-20010904/DTD/svg10.dtd">
<svg version="1.0" xmlns="http://www.w3.org/2000/svg"
 width="259.000000pt" height="194.000000pt" viewBox="0 0 259.000000 194.000000"
 preserveAspectRatio="xMidYMid meet">

<g transform="translate(0.000000,194.000000) scale(0.100000,-0.100000)"
fill="#000000" stroke="none">
<path d="M800 1123 l0 -508 100 100 100 99 2 306 3 305 305 3 306 2 99 100
100 100 -508 0 -507 0 0 -507z"/>
<path d="M1208 1120 l-3 -101 100 3 100 3 3 98 3 97 -100 0 -100 0 -3 -100z"/>
<path d="M800 355 c0 -25 5 -45 10 -45 6 0 10 9 10 19 0 12 8 21 23 24 l22 4
-22 2 c-36 2 -28 29 10 34 28 3 26 4 -10 5 l-43 2 0 -45z"/>
<path d="M1020 354 l0 -45 53 3 52 3 3 43 3 42 -55 0 -56 0 0 -46z m90 6 c0
-28 -3 -30 -35 -30 -32 0 -35 2 -35 30 0 28 3 30 35 30 32 0 35 -2 35 -30z"/>
<path d="M1250 355 c0 -25 5 -45 10 -45 6 0 10 6 10 14 0 25 16 27 43 6 33
-26 45 -26 22 0 -16 18 -16 20 -2 20 11 0 17 8 17 25 0 23 -3 25 -50 25 l-50
0 0 -45z m78 18 c2 -9 -7 -13 -27 -13 -21 0 -31 5 -31 16 0 19 51 16 58 -3z"/>
<path d="M1490 355 l0 -45 50 0 c47 0 50 2 50 25 0 21 -5 25 -27 24 -17 -1
-21 -3 -10 -6 30 -8 18 -23 -18 -23 -27 0 -35 4 -35 18 0 24 13 40 30 37 8 -1
24 1 35 6 14 5 7 8 -27 8 l-48 1 0 -45z"/>
<path d="M1722 355 l0 -45 38 0 c21 0 42 5 45 10 4 6 -8 10 -29 10 -42 0 -49
20 -8 21 25 1 26 1 4 7 -35 10 -27 26 15 33 36 6 35 6 -14 8 l-51 1 0 -45z"/>
</g>
</svg>
